<svg width="462" height="462" viewBox="0 42 462 462" fill="white" xmlns="http://www.w3.org/2000/svg">
<circle cx="24.5" cy="213.44" r="24.5" fill="white"/>
<ellipse cx="77" cy="213.44" rx="25" ry="24.5" fill="white"/>
<circle cx="129.5" cy="213.44" r="24.5" fill="white"/>
<circle cx="332.5" cy="328.1" r="24.5" fill="white"/>
<ellipse cx="385" cy="328.1" rx="25" ry="24.5" fill="white"/>
<circle cx="437.5" cy="328.1" r="24.5" fill="white"/>
<circle cx="287.5" cy="237.62" r="27.5" fill="white"/>
<ellipse cx="346" cy="237.62" rx="28" ry="27.5" fill="white"/>
<ellipse cx="55" cy="145.97" rx="25" ry="24" fill="white"/>
<circle cx="104.5" cy="287.54" r="27.5" fill="white"/>
<ellipse cx="163" cy="287.54" rx="28" ry="27.5" fill="white"/>
<circle cx="227" cy="159.23" r="27" fill="white"/>
<ellipse cx="284.5" cy="159.23" rx="27.5" ry="27" fill="white"/>
<circle cx="342" cy="159.23" r="27" fill="white"/>
<circle cx="399" cy="159.23" r="27" fill="white"/>
<circle cx="146.5" cy="466.94" r="25.5" fill="white"/>
<ellipse cx="201" cy="466.94" rx="26" ry="25.5" fill="white"/>
<circle cx="254.5" cy="466.94" r="25.5" fill="white"/>
<circle cx="308.5" cy="466.94" r="25.5" fill="white"/>
<circle cx="135.5" cy="80.06" r="25.5" fill="white"/>
<ellipse cx="190" cy="80.06" rx="26" ry="25.5" fill="white"/>
<circle cx="243.5" cy="80.06" r="25.5" fill="white"/>
<circle cx="297.5" cy="80.06" r="25.5" fill="white"/>
<circle cx="55" cy="387.77" r="27" fill="white"/>
<ellipse cx="112.5" cy="387.77" rx="27.5" ry="27" fill="white"/>
<circle cx="170" cy="387.77" r="27" fill="white"/>
<circle cx="227" cy="387.77" r="27" fill="white"/>
<circle cx="82.5" cy="146.36" r="24.5" stroke="white" stroke-width="6"/>
<ellipse cx="371" cy="400.25" rx="25" ry="24" fill="white"/>
<ellipse cx="396" cy="400.25" rx="25" ry="24" fill="white"/>
</svg>
